<?xml version="1.0" encoding="UTF-8"?><svg xmlns="http://www.w3.org/2000/svg" xmlns:xlink="http://www.w3.org/1999/xlink" contentScriptType="text/ecmascript" width="810" zoomAndPan="magnify" contentStyleType="text/css" viewBox="0 0 810 809.999993" height="809.999993" preserveAspectRatio="xMidYMid meet" version="1.0"><defs><clipPath id="clip-0"><path d="M 332 623 L 478 623 L 478 769.5 L 332 769.5 Z M 332 623 " clip-rule="nonzero"/></clipPath><clipPath id="clip-1"><path d="M 259 40.5 L 296 40.5 L 296 77 L 259 77 Z M 259 40.5 " clip-rule="nonzero"/></clipPath><clipPath id="clip-2"><path d="M 263 40.5 L 287 40.5 L 287 64 L 263 64 Z M 263 40.5 " clip-rule="nonzero"/></clipPath><clipPath id="clip-3"><path d="M 514 40.5 L 551 40.5 L 551 77 L 514 77 Z M 514 40.5 " clip-rule="nonzero"/></clipPath><clipPath id="clip-4"><path d="M 523 40.5 L 547 40.5 L 547 64 L 523 64 Z M 523 40.5 " clip-rule="nonzero"/></clipPath></defs><g clip-path="url(#clip-0)"><path fill="rgb(6.269836%, 5.879211%, 5.099487%)" d="M 477.898438 696.628906 C 477.898438 736.910156 445.257812 769.542969 404.988281 769.542969 C 364.6875 769.542969 332.050781 736.910156 332.050781 696.628906 C 332.050781 656.375 364.6875 623.730469 404.988281 623.730469 C 445.257812 623.730469 477.898438 656.375 477.898438 696.628906 " fill-opacity="1" fill-rule="nonzero"/></g><path fill="rgb(55.688477%, 55.288696%, 55.688477%)" d="M 441.433594 696.628906 C 441.433594 716.78125 425.09375 733.101562 404.988281 733.101562 C 384.839844 733.101562 368.515625 716.78125 368.515625 696.628906 C 368.515625 676.507812 384.839844 660.199219 404.988281 660.199219 C 425.09375 660.199219 441.433594 676.507812 441.433594 696.628906 " fill-opacity="1" fill-rule="nonzero"/><path fill="rgb(36.859131%, 37.649536%, 38.038635%)" d="M 404.988281 660.199219 C 384.839844 660.199219 368.515625 676.507812 368.515625 696.628906 C 368.515625 699.792969 368.902344 702.84375 369.65625 705.765625 L 440.289062 705.765625 C 441.035156 702.84375 441.433594 699.792969 441.433594 696.628906 C 441.433594 676.507812 425.09375 660.199219 404.988281 660.199219 " fill-opacity="1" fill-rule="nonzero"/><path fill="rgb(55.688477%, 55.288696%, 55.688477%)" d="M 149.742188 550.824219 L 240.878906 368.539062 L 277.34375 368.539062 L 186.199219 550.824219 L 149.742188 550.824219 " fill-opacity="1" fill-rule="nonzero"/><path fill="rgb(36.859131%, 37.649536%, 38.038635%)" d="M 186.199219 523.472656 L 249.992188 395.886719 L 268.242188 386.78125 L 195.316406 532.59375 L 186.199219 523.472656 " fill-opacity="1" fill-rule="nonzero"/><path fill="rgb(6.269836%, 5.879211%, 5.099487%)" d="M 222.660156 368.539062 C 222.660156 388.683594 238.976562 405.003906 259.125 405.003906 C 279.265625 405.003906 295.605469 388.683594 295.605469 368.539062 C 295.605469 348.410156 279.265625 332.097656 259.125 332.097656 C 238.976562 332.097656 222.660156 348.410156 222.660156 368.539062 " fill-opacity="1" fill-rule="nonzero"/><path fill="rgb(53.729248%, 76.469421%, 14.898682%)" d="M 167.960938 514.378906 C 198.167969 514.378906 222.660156 538.859375 222.660156 569.050781 C 222.660156 592.863281 207.425781 613.042969 186.199219 620.566406 L 186.199219 569.050781 C 186.199219 558.976562 178.03125 550.824219 167.960938 550.824219 C 157.910156 550.824219 149.726562 558.976562 149.726562 569.050781 L 149.726562 620.566406 C 128.496094 613.042969 113.269531 592.863281 113.269531 569.050781 C 113.269531 538.859375 137.734375 514.378906 167.960938 514.378906 " fill-opacity="1" fill-rule="nonzero"/><path fill="rgb(38.42926%, 57.249451%, 18.03894%)" d="M 213.527344 578.160156 C 213.527344 547.960938 189.050781 523.472656 158.84375 523.472656 C 146.066406 523.472656 134.316406 527.871094 125 535.214844 C 135.027344 522.535156 150.546875 514.378906 167.960938 514.378906 C 198.167969 514.378906 222.660156 538.859375 222.660156 569.050781 C 222.660156 586.449219 214.527344 601.898438 201.835938 611.917969 C 209.164062 602.628906 213.527344 590.90625 213.527344 578.160156 " fill-opacity="1" fill-rule="nonzero"/><path fill="rgb(38.42926%, 57.249451%, 18.03894%)" d="M 140.613281 616.34375 L 140.613281 578.160156 C 140.613281 570.757812 145.035156 564.402344 151.355469 561.550781 C 150.308594 563.847656 149.726562 566.375 149.726562 569.050781 L 149.726562 620.566406 C 146.539062 619.4375 143.488281 618.003906 140.613281 616.34375 " fill-opacity="1" fill-rule="nonzero"/><path fill="rgb(17.248535%, 16.859436%, 16.859436%)" d="M 240.878906 354.867188 C 240.878906 367.460938 251.09375 377.652344 263.683594 377.652344 C 276.265625 377.652344 286.472656 367.460938 286.472656 354.867188 C 286.472656 342.300781 276.265625 332.097656 263.683594 332.097656 C 251.09375 332.097656 240.878906 342.300781 240.878906 354.867188 " fill-opacity="1" fill-rule="nonzero"/><path fill="rgb(55.688477%, 55.288696%, 55.688477%)" d="M 660.210938 550.824219 L 569.070312 368.539062 L 532.589844 368.539062 L 623.765625 550.824219 L 660.210938 550.824219 " fill-opacity="1" fill-rule="nonzero"/><path fill="rgb(36.859131%, 37.649536%, 38.038635%)" d="M 623.765625 523.472656 L 559.953125 395.886719 L 541.71875 386.78125 L 614.652344 532.59375 L 623.765625 523.472656 " fill-opacity="1" fill-rule="nonzero"/><path fill="rgb(6.269836%, 5.879211%, 5.099487%)" d="M 587.300781 368.539062 C 587.300781 388.683594 570.972656 405.003906 550.835938 405.003906 C 530.6875 405.003906 514.363281 388.683594 514.363281 368.539062 C 514.363281 348.410156 530.6875 332.097656 550.835938 332.097656 C 570.972656 332.097656 587.300781 348.410156 587.300781 368.539062 " fill-opacity="1" fill-rule="nonzero"/><path fill="rgb(53.729248%, 76.469421%, 14.898682%)" d="M 641.992188 514.378906 C 611.792969 514.378906 587.300781 538.859375 587.300781 569.050781 C 587.300781 592.863281 602.539062 613.042969 623.765625 620.566406 L 623.765625 569.050781 C 623.765625 558.976562 631.9375 550.824219 641.992188 550.824219 C 652.070312 550.824219 660.210938 558.976562 660.210938 569.050781 L 660.210938 620.566406 C 681.453125 613.042969 696.683594 592.863281 696.683594 569.050781 C 696.683594 538.859375 672.207031 514.378906 641.992188 514.378906 " fill-opacity="1" fill-rule="nonzero"/><path fill="rgb(38.42926%, 57.249451%, 18.03894%)" d="M 596.417969 578.160156 C 596.417969 547.960938 620.894531 523.472656 651.09375 523.472656 C 663.886719 523.472656 675.644531 527.871094 684.941406 535.214844 C 674.917969 522.535156 659.421875 514.378906 641.992188 514.378906 C 611.792969 514.378906 587.300781 538.859375 587.300781 569.050781 C 587.300781 586.449219 595.441406 601.898438 608.113281 611.917969 C 600.773438 602.628906 596.417969 590.90625 596.417969 578.160156 " fill-opacity="1" fill-rule="nonzero"/><path fill="rgb(38.42926%, 57.249451%, 18.03894%)" d="M 669.328125 616.34375 L 669.328125 578.160156 C 669.328125 570.757812 664.914062 564.402344 658.609375 561.550781 C 659.636719 563.847656 660.210938 566.375 660.210938 569.050781 L 660.210938 620.566406 C 663.414062 619.4375 666.464844 618.003906 669.328125 616.34375 " fill-opacity="1" fill-rule="nonzero"/><path fill="rgb(17.248535%, 16.859436%, 16.859436%)" d="M 569.070312 354.867188 C 569.070312 367.460938 558.859375 377.652344 546.285156 377.652344 C 533.6875 377.652344 523.480469 367.460938 523.480469 354.867188 C 523.480469 342.300781 533.6875 332.097656 546.285156 332.097656 C 558.859375 332.097656 569.070312 342.300781 569.070312 354.867188 " fill-opacity="1" fill-rule="nonzero"/><path fill="rgb(17.248535%, 16.859436%, 16.859436%)" d="M 477.898438 268.304688 C 477.898438 273.320312 469.726562 277.417969 459.6875 277.417969 L 350.265625 277.417969 C 340.210938 277.417969 332.050781 273.320312 332.050781 268.304688 C 332.050781 263.257812 340.210938 259.195312 350.265625 259.195312 L 459.6875 259.195312 C 469.726562 259.195312 477.898438 263.257812 477.898438 268.304688 " fill-opacity="1" fill-rule="nonzero"/><path fill="rgb(6.269836%, 5.879211%, 5.099487%)" d="M 463.246094 135.171875 L 456.089844 128.015625 L 529.027344 55.101562 L 536.171875 62.265625 L 463.246094 135.171875 " fill-opacity="1" fill-rule="nonzero"/><path fill="rgb(6.269836%, 5.879211%, 5.099487%)" d="M 346.699219 135.171875 L 273.769531 62.265625 L 280.917969 55.101562 L 353.847656 128.015625 L 346.699219 135.171875 " fill-opacity="1" fill-rule="nonzero"/><path fill="rgb(78.42865%, 90.19928%, 69.40918%)" d="M 259.125 186.269531 C 259.125 186.269531 259.125 113.347656 332.050781 113.347656 C 404.988281 113.347656 477.898438 113.347656 477.898438 113.347656 C 477.898438 113.347656 550.835938 113.363281 550.835938 186.269531 C 550.835938 259.195312 477.898438 259.195312 477.898438 259.195312 L 332.050781 259.195312 C 332.050781 259.195312 259.125 259.195312 259.125 186.269531 " fill-opacity="1" fill-rule="nonzero"/><path fill="rgb(93.328857%, 96.078491%, 68.629456%)" d="M 277.34375 177.160156 C 277.34375 177.160156 277.34375 113.347656 341.164062 113.347656 C 404.988281 113.347656 468.78125 113.347656 468.78125 113.347656 C 468.78125 113.347656 532.589844 113.363281 532.589844 177.175781 C 532.589844 240.953125 468.78125 240.953125 468.78125 240.953125 L 341.164062 240.953125 C 341.164062 240.953125 277.359375 240.953125 277.34375 177.160156 " fill-opacity="1" fill-rule="nonzero"/><path fill="rgb(38.42926%, 57.249451%, 18.03894%)" d="M 441.433594 332.097656 L 477.898438 332.097656 C 477.898438 332.097656 550.835938 332.097656 550.835938 405.003906 C 550.835938 477.929688 550.835938 623.730469 550.835938 623.730469 C 550.835938 623.730469 550.835938 696.628906 477.898438 696.628906 L 332.050781 696.628906 C 332.050781 696.628906 259.125 696.628906 259.125 623.730469 C 259.125 550.824219 259.125 405.003906 259.125 405.003906 C 259.125 405.003906 259.125 332.097656 332.050781 332.097656 C 404.988281 332.097656 441.433594 332.097656 441.433594 332.097656 " fill-opacity="1" fill-rule="nonzero"/><path fill="rgb(53.729248%, 76.469421%, 14.898682%)" d="M 437.804688 350.332031 L 470.613281 350.332031 C 470.613281 350.332031 536.25 350.332031 536.25 415.933594 C 536.25 481.5625 536.25 612.785156 536.25 612.785156 C 536.25 612.785156 536.25 678.40625 470.613281 678.40625 L 339.34375 678.40625 C 339.34375 678.40625 273.703125 678.40625 273.703125 612.785156 C 273.703125 547.183594 273.703125 415.933594 273.703125 415.933594 C 273.703125 415.933594 273.703125 350.332031 339.34375 350.332031 C 404.988281 350.332031 437.804688 350.332031 437.804688 350.332031 " fill-opacity="1" fill-rule="nonzero"/><path fill="rgb(70.199585%, 84.709167%, 37.249756%)" d="M 441.453125 623.730469 L 368.515625 623.730469 L 368.515625 332.097656 L 441.453125 332.097656 L 441.453125 623.730469 " fill-opacity="1" fill-rule="nonzero"/><path fill="rgb(38.42926%, 57.249451%, 18.03894%)" d="M 514.363281 432.351562 C 514.363281 442.398438 506.203125 450.558594 496.128906 450.558594 C 486.066406 450.558594 477.898438 442.398438 477.898438 432.351562 C 477.898438 422.277344 486.066406 414.117188 496.128906 414.117188 C 506.203125 414.117188 514.363281 422.277344 514.363281 432.351562 " fill-opacity="1" fill-rule="nonzero"/><path fill="rgb(38.42926%, 57.249451%, 18.03894%)" d="M 514.363281 541.703125 C 514.363281 551.777344 506.203125 559.9375 496.128906 559.9375 C 486.066406 559.9375 477.898438 551.777344 477.898438 541.703125 C 477.898438 531.632812 486.066406 523.472656 496.128906 523.472656 C 506.203125 523.472656 514.363281 531.632812 514.363281 541.703125 " fill-opacity="1" fill-rule="nonzero"/><path fill="rgb(38.42926%, 57.249451%, 18.03894%)" d="M 332.050781 432.351562 C 332.050781 442.398438 323.878906 450.558594 313.824219 450.558594 C 303.746094 450.558594 295.574219 442.398438 295.574219 432.351562 C 295.574219 422.277344 303.746094 414.117188 313.824219 414.117188 C 323.878906 414.117188 332.050781 422.277344 332.050781 432.351562 " fill-opacity="1" fill-rule="nonzero"/><path fill="rgb(38.42926%, 57.249451%, 18.03894%)" d="M 332.050781 541.703125 C 332.050781 551.777344 323.878906 559.9375 313.824219 559.9375 C 303.746094 559.9375 295.574219 551.777344 295.574219 541.703125 C 295.574219 531.632812 303.746094 523.472656 313.824219 523.472656 C 323.878906 523.472656 332.050781 531.632812 332.050781 541.703125 " fill-opacity="1" fill-rule="nonzero"/><path fill="rgb(93.328857%, 96.078491%, 68.629456%)" d="M 332.050781 423.21875 C 332.050781 433.308594 323.878906 441.46875 313.824219 441.46875 C 303.746094 441.46875 295.574219 433.308594 295.574219 423.21875 C 295.574219 413.164062 303.746094 405.003906 313.824219 405.003906 C 323.878906 405.003906 332.050781 413.164062 332.050781 423.21875 " fill-opacity="1" fill-rule="nonzero"/><path fill="rgb(93.328857%, 96.078491%, 68.629456%)" d="M 332.050781 532.59375 C 332.050781 542.664062 323.878906 550.824219 313.824219 550.824219 C 303.746094 550.824219 295.574219 542.664062 295.574219 532.59375 C 295.574219 522.535156 303.746094 514.378906 313.824219 514.378906 C 323.878906 514.378906 332.050781 522.535156 332.050781 532.59375 " fill-opacity="1" fill-rule="nonzero"/><path fill="rgb(93.328857%, 96.078491%, 68.629456%)" d="M 514.363281 532.59375 C 514.363281 542.664062 506.203125 550.824219 496.128906 550.824219 C 486.066406 550.824219 477.898438 542.664062 477.898438 532.59375 C 477.898438 522.535156 486.066406 514.378906 496.128906 514.378906 C 506.203125 514.378906 514.363281 522.535156 514.363281 532.59375 " fill-opacity="1" fill-rule="nonzero"/><path fill="rgb(93.328857%, 96.078491%, 68.629456%)" d="M 514.363281 423.21875 C 514.363281 433.308594 506.203125 441.46875 496.128906 441.46875 C 486.066406 441.46875 477.898438 433.308594 477.898438 423.21875 C 477.898438 413.164062 486.066406 405.003906 496.128906 405.003906 C 506.203125 405.003906 514.363281 413.164062 514.363281 423.21875 " fill-opacity="1" fill-rule="nonzero"/><path fill="rgb(11.759949%, 27.449036%, 12.939453%)" d="M 259.125 623.730469 C 259.125 694.621094 328.023438 696.578125 331.871094 696.628906 L 477.960938 696.628906 C 550.835938 696.59375 550.835938 623.730469 550.835938 623.730469 L 259.125 623.730469 " fill-opacity="1" fill-rule="nonzero"/><path fill="rgb(24.708557%, 36.859131%, 14.509583%)" d="M 535.101562 623.730469 L 274.386719 623.730469 C 281.21875 678.402344 339.34375 678.40625 339.34375 678.40625 L 470.613281 678.40625 C 519.238281 678.40625 531.84375 642.390625 535.101562 623.730469 " fill-opacity="1" fill-rule="nonzero"/><path fill="rgb(6.269836%, 5.879211%, 5.099487%)" d="M 475.449219 263.71875 C 472.285156 266.460938 466.410156 268.289062 459.6875 268.289062 L 350.265625 268.289062 C 343.527344 268.289062 337.664062 266.460938 334.503906 263.71875 C 332.953125 265.074219 332.050781 266.617188 332.050781 268.304688 C 332.050781 273.320312 340.210938 277.417969 350.265625 277.417969 L 459.6875 277.417969 C 469.726562 277.417969 477.898438 273.320312 477.898438 268.304688 C 477.898438 266.617188 477.015625 265.074219 475.449219 263.71875 " fill-opacity="1" fill-rule="nonzero"/><path fill="rgb(17.248535%, 16.859436%, 16.859436%)" d="M 477.898438 286.519531 C 477.898438 291.554688 469.726562 295.660156 459.6875 295.660156 L 350.265625 295.660156 C 340.210938 295.660156 332.050781 291.554688 332.050781 286.519531 C 332.050781 281.5 340.210938 277.402344 350.265625 277.402344 L 459.6875 277.402344 C 469.726562 277.402344 477.898438 281.5 477.898438 286.519531 " fill-opacity="1" fill-rule="nonzero"/><path fill="rgb(6.269836%, 5.879211%, 5.099487%)" d="M 475.449219 281.976562 C 472.285156 284.6875 466.410156 286.519531 459.6875 286.519531 L 350.265625 286.519531 C 343.527344 286.519531 337.664062 284.6875 334.503906 281.976562 C 332.953125 283.296875 332.050781 284.859375 332.050781 286.519531 C 332.050781 291.554688 340.210938 295.660156 350.265625 295.660156 L 459.6875 295.660156 C 469.726562 295.660156 477.898438 291.554688 477.898438 286.519531 C 477.898438 284.859375 477.015625 283.296875 475.449219 281.976562 " fill-opacity="1" fill-rule="nonzero"/><path fill="rgb(17.248535%, 16.859436%, 16.859436%)" d="M 477.898438 304.761719 C 477.898438 309.769531 469.726562 313.875 459.6875 313.875 L 350.265625 313.875 C 340.210938 313.875 332.050781 309.769531 332.050781 304.761719 C 332.050781 299.714844 340.210938 295.660156 350.265625 295.660156 L 459.6875 295.660156 C 469.726562 295.660156 477.898438 299.714844 477.898438 304.761719 " fill-opacity="1" fill-rule="nonzero"/><path fill="rgb(6.269836%, 5.879211%, 5.099487%)" d="M 475.449219 300.1875 C 472.285156 302.902344 466.410156 304.761719 459.6875 304.761719 L 350.265625 304.761719 C 343.527344 304.761719 337.664062 302.902344 334.503906 300.1875 C 332.953125 301.539062 332.050781 303.082031 332.050781 304.761719 C 332.050781 309.769531 340.210938 313.875 350.265625 313.875 L 459.6875 313.875 C 469.726562 313.875 477.898438 309.769531 477.898438 304.761719 C 477.898438 303.082031 477.015625 301.539062 475.449219 300.1875 " fill-opacity="1" fill-rule="nonzero"/><path fill="rgb(17.248535%, 16.859436%, 16.859436%)" d="M 477.898438 322.976562 C 477.898438 328.019531 469.726562 332.097656 459.6875 332.097656 L 350.265625 332.097656 C 340.210938 332.097656 332.050781 328.019531 332.050781 322.976562 C 332.050781 317.9375 340.210938 313.875 350.265625 313.875 L 459.6875 313.875 C 469.726562 313.875 477.898438 317.9375 477.898438 322.976562 " fill-opacity="1" fill-rule="nonzero"/><path fill="rgb(6.269836%, 5.879211%, 5.099487%)" d="M 475.449219 318.410156 C 472.285156 321.144531 466.410156 322.976562 459.6875 322.976562 L 350.265625 322.976562 C 343.527344 322.976562 337.664062 321.144531 334.503906 318.410156 C 332.953125 319.753906 332.050781 321.308594 332.050781 322.976562 C 332.050781 328.019531 340.210938 332.097656 350.265625 332.097656 L 459.6875 332.097656 C 469.726562 332.097656 477.898438 328.019531 477.898438 322.976562 C 477.898438 321.308594 477.015625 319.753906 475.449219 318.410156 " fill-opacity="1" fill-rule="nonzero"/><g clip-path="url(#clip-1)"><path fill="rgb(53.729248%, 76.469421%, 14.898682%)" d="M 295.574219 58.683594 C 295.574219 68.738281 287.414062 76.914062 277.34375 76.914062 C 267.265625 76.914062 259.125 68.738281 259.125 58.683594 C 259.125 48.617188 267.265625 40.457031 277.34375 40.457031 C 287.414062 40.457031 295.574219 48.617188 295.574219 58.683594 " fill-opacity="1" fill-rule="nonzero"/></g><g clip-path="url(#clip-2)"><path fill="rgb(70.199585%, 84.709167%, 37.249756%)" d="M 286.472656 51.835938 C 286.472656 58.132812 281.371094 63.226562 275.082031 63.226562 C 268.785156 63.226562 263.683594 58.132812 263.683594 51.835938 C 263.683594 45.542969 268.785156 40.457031 275.082031 40.457031 C 281.371094 40.457031 286.472656 45.542969 286.472656 51.835938 " fill-opacity="1" fill-rule="nonzero"/></g><g clip-path="url(#clip-3)"><path fill="rgb(53.729248%, 76.469421%, 14.898682%)" d="M 514.363281 58.683594 C 514.363281 68.738281 522.515625 76.914062 532.589844 76.914062 C 542.667969 76.914062 550.835938 68.738281 550.835938 58.683594 C 550.835938 48.617188 542.667969 40.457031 532.589844 40.457031 C 522.515625 40.457031 514.363281 48.617188 514.363281 58.683594 " fill-opacity="1" fill-rule="nonzero"/></g><g clip-path="url(#clip-4)"><path fill="rgb(70.199585%, 84.709167%, 37.249756%)" d="M 523.480469 51.835938 C 523.480469 58.132812 528.582031 63.226562 534.886719 63.226562 C 541.160156 63.226562 546.285156 58.132812 546.285156 51.835938 C 546.285156 45.542969 541.160156 40.457031 534.886719 40.457031 C 528.582031 40.457031 523.480469 45.542969 523.480469 51.835938 " fill-opacity="1" fill-rule="nonzero"/></g><path fill="rgb(53.729248%, 76.469421%, 14.898682%)" d="M 441.453125 350.332031 L 368.515625 350.332031 L 368.515625 332.097656 L 441.453125 332.097656 L 441.453125 350.332031 " fill-opacity="1" fill-rule="nonzero"/><path fill="rgb(53.729248%, 76.469421%, 14.898682%)" d="M 341.164062 149.804688 L 359.398438 149.804688 L 359.398438 158.925781 L 368.515625 158.925781 L 368.515625 213.605469 L 359.398438 213.605469 L 359.398438 222.726562 L 341.164062 222.726562 L 341.164062 213.605469 L 332.050781 213.605469 L 332.050781 158.925781 L 341.164062 158.925781 L 341.164062 149.804688 " fill-opacity="1" fill-rule="nonzero"/><path fill="rgb(53.729248%, 76.469421%, 14.898682%)" d="M 450.570312 149.804688 L 468.78125 149.804688 L 468.78125 158.925781 L 477.898438 158.925781 L 477.898438 213.605469 L 468.78125 213.605469 L 468.78125 222.726562 L 450.570312 222.726562 L 450.570312 213.605469 L 441.453125 213.605469 L 441.453125 158.925781 L 450.570312 158.925781 L 450.570312 149.804688 " fill-opacity="1" fill-rule="nonzero"/></svg>