<!-- <svg xmlns="http://www.w3.org/2000/svg" width="187.5" viewBox="0 0 187.5 75" height="75" version="1.0"><g fill="#313132"><g><g><path d="M 14.527344 0.535156 C 19.84375 0.535156 24.035156 -2.417969 25.808594 -7.410156 L 19.84375 -9.667969 C 19.148438 -7.144531 17.105469 -5.398438 14.472656 -5.398438 C 9.910156 -5.398438 8.191406 -9.292969 8.191406 -13.375 C 8.191406 -17.375 9.964844 -21.457031 14.472656 -21.457031 C 17.160156 -21.457031 19.148438 -19.628906 19.84375 -17.050781 L 26.074219 -19.46875 C 24.035156 -24.8125 19.792969 -27.390625 14.472656 -27.390625 C 5.71875 -27.390625 1.53125 -20.410156 1.53125 -13.375 C 1.53125 -6.257812 5.773438 0.535156 14.527344 0.535156 Z M 14.527344 0.535156" transform="translate(8.54 53.725)"/></g></g></g><g fill="#313132"><g><g><path d="M 3.894531 0 L 10.230469 0 L 10.230469 -11.332031 C 10.230469 -18.152344 13.425781 -21 16.488281 -21 C 17.535156 -21 18.53125 -20.679688 19.414062 -20.085938 L 22.394531 -25.457031 C 21.109375 -26.773438 19.253906 -27.390625 17.480469 -27.390625 C 14.472656 -27.390625 11.441406 -25.566406 10.285156 -22.316406 L 10.285156 -26.828125 L 3.894531 -26.828125 Z M 3.894531 0" transform="translate(32.75 53.725)"/></g></g></g><g fill="#313132"><g><g><path d="M 15.171875 0.535156 C 23.46875 0.535156 28.921875 -5.882812 28.921875 -13.480469 C 28.921875 -21.054688 23.46875 -27.390625 15.171875 -27.390625 C 6.875 -27.390625 1.421875 -21.054688 1.421875 -13.480469 C 1.421875 -5.882812 6.875 0.535156 15.171875 0.535156 Z M 15.171875 -5.101562 C 10.230469 -5.101562 8.246094 -9.078125 8.246094 -13.480469 C 8.246094 -17.886719 10.230469 -21.726562 15.171875 -21.726562 C 20.140625 -21.726562 22.101562 -17.886719 22.101562 -13.480469 C 22.101562 -9.078125 20.140625 -5.101562 15.171875 -5.101562 Z M 15.171875 -5.101562" transform="translate(51.886 53.725)"/></g></g></g><g fill="#313132"><g><g><path d="M 3.894531 0 L 10.445312 0 L 10.445312 -14.6875 C 10.445312 -19.363281 12.753906 -21.347656 16.433594 -21.347656 C 19.792969 -21.347656 21.5625 -18.796875 21.5625 -15.28125 L 21.5625 0 L 28.117188 0 L 28.117188 -16.113281 C 28.117188 -21.726562 25.351562 -27.390625 18.316406 -27.390625 C 15.683594 -27.390625 12.59375 -26.34375 10.445312 -23.710938 L 10.445312 -26.828125 L 3.894531 -26.828125 Z M 3.894531 0" transform="translate(79.48 53.725)"/></g></g></g><g fill="#2563EB"><g><g><path d="M 3.839844 -31.902344 L 10.769531 -31.902344 L 10.769531 -37.945312 L 3.839844 -37.945312 Z M 2.792969 11.761719 C 8.191406 11.761719 10.609375 7.707031 10.609375 2.792969 L 10.609375 -26.828125 L 4.027344 -26.828125 L 4.027344 3.304688 C 4.027344 4.996094 3.410156 5.828125 2.148438 5.828125 C 1.53125 5.828125 0.726562 5.613281 -0.214844 5.238281 L -1.878906 10.902344 C -0.777344 11.332031 1.15625 11.761719 2.792969 11.761719 Z M 2.792969 11.761719" transform="translate(107.95 53.725)"/></g></g></g><g fill="#2563EB"><g><g><path d="M 15.171875 0.535156 C 23.46875 0.535156 28.921875 -5.882812 28.921875 -13.480469 C 28.921875 -21.054688 23.46875 -27.390625 15.171875 -27.390625 C 6.875 -27.390625 1.421875 -21.054688 1.421875 -13.480469 C 1.421875 -5.882812 6.875 0.535156 15.171875 0.535156 Z M 15.171875 -5.101562 C 10.230469 -5.101562 8.246094 -9.078125 8.246094 -13.480469 C 8.246094 -17.886719 10.230469 -21.726562 15.171875 -21.726562 C 20.140625 -21.726562 22.101562 -17.886719 22.101562 -13.480469 C 22.101562 -9.078125 20.140625 -5.101562 15.171875 -5.101562 Z M 15.171875 -5.101562" transform="translate(119.78 53.725)"/></g></g></g><g fill="#2563EB"><g><g><path d="M 18.367188 0.535156 C 25.808594 0.535156 29.863281 -5.988281 29.863281 -13.425781 C 29.863281 -20.894531 25.808594 -27.390625 18.261719 -27.390625 C 15.386719 -27.390625 12.59375 -26.453125 10.714844 -24.140625 L 10.714844 -37.945312 L 3.949219 -37.945312 L 3.949219 0 L 10.714844 0 L 10.714844 -2.683594 C 12.59375 -0.375 15.574219 0.535156 18.367188 0.535156 Z M 16.730469 -5.503906 C 12.21875 -5.503906 10.125 -8.914062 10.125 -13.425781 C 10.125 -17.9375 12.21875 -21.457031 16.730469 -21.457031 C 21.242188 -21.457031 23.253906 -17.886719 23.253906 -13.425781 C 23.253906 -8.96875 21.242188 -5.503906 16.730469 -5.503906 Z M 16.730469 -5.503906" transform="translate(147.375 53.725)"/></g></g></g></svg>
 -->
 <svg xmlns="http://www.w3.org/2000/svg" class="h-6 w-auto text-slate-900" fill="none" viewBox="0 0 24 24" stroke="currentColor">
  <path stroke-linecap="round" stroke-linejoin="round" stroke-width="2" d="M15 7a2 2 0 012 2m4 0a6 6 0 01-7.743 5.743L11 17H9v2H7v2H4a1 1 0 01-1-1v-2.586a1 1 0 01.293-.707l5.964-5.964A6 6 0 1121 9z" />
</svg>